<svg id="Layer_1" enable-background="new 0 0 256 256" height="512" viewBox="0 0 256 256" width="512" xmlns="http://www.w3.org/2000/svg"><circle cx="128" cy="128" fill="#7bac51" r="124"/><path d="m40.319 40.319c-48.425 48.425-48.425 126.938 0 175.362l175.362-175.362c-48.425-48.425-126.937-48.425-175.362 0z" fill="#fcc24c"/><path d="m215.681 40.319c-1.185-1.185-2.393-2.332-3.613-3.459 44.929 48.641 43.782 124.51-3.458 171.75s-123.109 48.387-171.75 3.458c1.127 1.22 2.274 2.428 3.459 3.613 48.425 48.425 126.937 48.425 175.362 0s48.425-126.937 0-175.362z" fill="#5d8e33"/><path d="m47.39 47.39c46.044-46.045 119.288-48.304 168.007-6.787l.285-.284c-48.425-48.425-126.937-48.425-175.362 0s-48.425 126.938 0 175.362l.284-.285c-41.518-48.718-39.259-121.962 6.786-168.006z" fill="#fce06a"/><ellipse cx="128" cy="128" fill="#ff4397" rx="124" ry="62" transform="matrix(.707 -.707 .707 .707 -53.019 128)"/><g fill="#690589"><path d="m128 253.941c-32.266 0-64.532-12.282-89.095-36.846-49.127-49.128-49.127-129.063 0-178.191 49.127-49.127 129.063-49.127 178.19 0 49.127 49.128 49.127 129.063 0 178.191-24.563 24.564-56.829 36.846-89.095 36.846zm0-247.884c-31.242 0-62.483 11.892-86.267 35.676-47.567 47.568-47.567 124.967 0 172.535 47.568 47.568 124.966 47.568 172.534 0l1.414 1.414-1.414-1.414c47.567-47.568 47.567-124.967 0-172.535-23.784-23.785-55.025-35.676-86.267-35.676z"/><path d="m46.333 47.688c-.512 0-1.024-.195-1.414-.586-.781-.781-.781-2.047 0-2.828 2.884-2.884 5.949-5.632 9.112-8.168.861-.692 2.12-.554 2.811.31.691.861.553 2.12-.309 2.812-3.049 2.444-6.005 5.095-8.786 7.875-.39.39-.902.585-1.414.585z"/><path d="m69.076 228.077c-12.552 0-22.876-3.687-30.171-10.981-12.274-12.274-14.334-33.131-5.802-58.729 8.377-25.13 26.007-51.986 49.643-75.622s50.492-41.266 75.623-49.643c25.598-8.532 46.454-6.472 58.728 5.802s14.334 33.131 5.802 58.729c-8.377 25.13-26.007 51.986-49.643 75.622s-50.492 41.266-75.623 49.643c-10.384 3.46-19.991 5.179-28.557 5.179zm117.729-196.204c-28.128 0-67.269 19.737-101.232 53.7-47.567 47.567-67.234 105.3-43.84 128.694 23.395 23.392 81.125 3.728 128.694-43.841l1.414 1.414-1.414-1.414c47.567-47.567 67.234-105.3 43.84-128.694-6.691-6.69-16.194-9.859-27.462-9.859z"/></g><path d="m155.944 7.182c2.326 12.249 16.849 33.799 37.962 54.912s42.664 35.637 54.912 37.962c-5.041-21.892-16.081-42.682-33.137-59.738-17.056-17.055-37.846-28.095-59.737-33.136z" fill="#f4efed"/><path d="m242.841 98.252c2.171.851 4.177 1.463 5.977 1.805-5.041-21.892-16.081-42.682-33.137-59.738-1.19-1.19-2.402-2.343-3.627-3.474 16.399 17.748 26.662 39.119 30.787 61.407z" fill="#d6d1cf"/><path d="m157.748 13.159c-.851-2.171-1.463-4.177-1.805-5.977 21.892 5.041 42.682 16.081 59.738 33.137 1.19 1.19 2.343 2.402 3.474 3.627-17.748-16.399-39.119-26.662-61.407-30.787z" fill="#fff"/><path d="m248.818 102.057c-.124 0-.249-.012-.373-.035-13.078-2.483-35.041-17.602-55.953-38.514-20.913-20.913-36.03-42.876-38.513-55.953-.126-.663.091-1.346.578-1.814s1.177-.659 1.835-.508c22.975 5.29 43.965 16.934 60.703 33.672s28.381 37.729 33.672 60.703c.151.659-.04 1.349-.508 1.836-.381.395-.903.613-1.441.613zm-90.111-92.14c3.958 12.513 18.157 32.306 36.613 50.763 18.457 18.456 38.25 32.654 50.763 36.613-5.438-20.986-16.393-40.137-31.816-55.561-15.423-15.422-34.574-26.378-55.56-31.815z" fill="#690589"/></svg>